<svg width="10" height="18" viewBox="0 0 10 18" fill="none" xmlns="http://www.w3.org/2000/svg">
<path d="M7.98483 0C8.2937 0.0234344 8.60257 0.0468689 8.91096 0.0712407C9.10266 0.0867075 9.29341 0.106392 9.48933 0.124671V2.98789C9.41059 2.98789 9.337 2.98789 9.26295 2.98789C8.65365 2.99773 8.04436 2.98039 7.43787 3.02539C6.78546 3.07226 6.40113 3.41159 6.35989 4.06447C6.30412 4.94936 6.34583 5.84033 6.34583 6.74818H9.22264C9.0886 7.82617 8.95736 8.87838 8.82426 9.94605H6.33083C6.32568 10.0103 6.31771 10.0604 6.31771 10.1106C6.31771 12.6874 6.31771 15.2652 6.31771 17.8439C6.31771 17.896 6.32755 17.948 6.33224 18H3.09828C3.10156 17.9475 3.10766 17.895 3.10766 17.843C3.10766 15.2724 3.10766 12.7016 3.10766 10.1307V9.95823H0.510651V6.75709H3.10859C3.10859 6.67319 3.10859 6.6057 3.10859 6.53821C3.11656 5.59568 3.09125 4.65127 3.14187 3.71108C3.20139 2.60497 3.5815 1.61932 4.4542 0.877386C5.03678 0.374951 5.7295 0.131702 6.48175 0.0351517C6.53846 0.0281213 6.5933 0.0117172 6.65048 0H7.98483Z" fill="white"/>
</svg>
