<svg width="24" height="24" viewBox="0 0 24 24" fill="none" xmlns="http://www.w3.org/2000/svg">
<path d="M8.40804 0H15.5835C16.1437 0.0310726 16.7039 0.060262 17.2642 0.0941594C18.243 0.151597 19.2043 0.320142 20.1036 0.725027C22.3111 1.71794 23.474 3.48625 23.8356 5.83129C23.8996 6.24559 23.9297 6.66507 23.9768 7.08173V16.7429C23.9627 16.8503 23.9472 16.9576 23.9344 17.065C23.8723 17.5913 23.8455 18.1257 23.7395 18.6436C23.2631 20.9373 21.9675 22.5667 19.7627 23.425C18.7062 23.8364 17.5933 23.9485 16.4728 23.9598C13.9333 23.9857 11.3934 24.0097 8.85341 23.996C7.6058 23.9895 6.35207 23.9843 5.1247 23.6867C3.13747 23.2042 1.66152 22.0771 0.783954 20.2165C0.24395 19.0715 0.0777585 17.8394 0.0655178 16.5914C0.0382116 13.9949 0.00949301 11.3999 0.0302081 8.8039C0.0333998 7.71051 0.112053 6.61865 0.265606 5.5361C0.512304 3.86053 1.3216 2.46368 2.69586 1.43263C3.87285 0.548949 5.23816 0.197735 6.67927 0.0955717C7.25506 0.0550832 7.83178 0.0315434 8.40804 0ZM12.0285 21.892V21.8553C12.6617 21.8553 13.2954 21.8742 13.9277 21.8516C15.285 21.8045 16.6526 21.8181 17.9968 21.6501C19.8432 21.4189 21.0955 20.3596 21.5494 18.5216C21.7325 17.7792 21.7961 16.9929 21.8093 16.2246C21.8507 13.8104 21.8626 11.3955 21.845 8.97998C21.8449 8.00436 21.7863 7.02963 21.6694 6.06104C21.4242 4.1303 20.2203 2.82478 18.3178 2.44485C17.4968 2.28101 16.6437 2.23158 15.8033 2.21792C13.7017 2.18261 11.5991 2.18921 9.49464 2.19627C8.29222 2.20003 7.08651 2.1845 5.89492 2.394C4.07576 2.71461 2.82768 3.86948 2.45575 5.68346C2.29521 6.46545 2.24248 7.27852 2.22553 8.07934C2.18457 10.0011 2.16904 11.9248 2.19069 13.8471C2.20576 15.2049 2.24154 16.5673 2.37148 17.9181C2.4986 19.2363 3.12099 20.3267 4.27821 21.0451C5.06067 21.5305 5.94012 21.7249 6.8464 21.7574C8.57376 21.8191 10.3006 21.8478 12.0285 21.892Z" fill="white"/>
<path d="M5.8469 12.0053C5.85208 8.59674 8.62931 5.82845 12.0285 5.84258C15.445 5.8567 18.2044 8.62875 18.1832 12.0256C18.162 15.4355 15.4107 18.1807 12.0158 18.1775C8.61095 18.1727 5.84172 15.4026 5.8469 12.0053ZM8.0201 12.0053C8.01926 12.796 8.25298 13.5692 8.69168 14.227C9.13039 14.8848 9.75436 15.3977 10.4847 15.7008C11.2149 16.0039 12.0187 16.0836 12.7943 15.9298C13.5699 15.7759 14.2824 15.3955 14.8417 14.8366C15.401 14.2777 15.782 13.5654 15.9364 12.7899C16.0907 12.0145 16.0116 11.2106 15.7091 10.4801C15.4065 9.74961 14.894 9.12528 14.2365 8.68611C13.579 8.24694 12.806 8.01267 12.0153 8.01295C11.4905 8.01165 10.9706 8.114 10.4855 8.31414C10.0004 8.51428 9.55957 8.80826 9.18836 9.17921C8.81715 9.55015 8.52285 9.99076 8.32237 10.4757C8.12189 10.9607 8.01917 11.4805 8.0201 12.0053Z" fill="white"/>
<path d="M18.4581 4.1623C18.835 4.17584 19.1914 4.33701 19.4504 4.61104C19.7095 4.88507 19.8504 5.24997 19.8427 5.62697C19.835 6.00398 19.6794 6.36285 19.4095 6.62612C19.1395 6.8894 18.7768 7.03596 18.3998 7.03417C18.2092 7.03326 18.0208 6.99446 17.8454 6.92004C17.6701 6.84561 17.5113 6.73705 17.3782 6.60065C17.2452 6.46426 17.1407 6.30277 17.0707 6.12559C17.0007 5.9484 16.9666 5.75906 16.9705 5.56859C16.9744 5.37811 17.0161 5.19031 17.0932 5.01612C17.1704 4.84193 17.2814 4.68482 17.4198 4.55394C17.5583 4.42307 17.7214 4.32105 17.8996 4.25381C18.0779 4.18657 18.2677 4.15547 18.4581 4.1623Z" fill="white"/>
</svg>
